# xmcd
#
# Track frame offsets:
#	180
#	97708
#	139377
#
# Disc length: 2414 seconds
#
# Revision: 2
# Processed by: cddbd v1.5.2PL0 Copyright (c) Steve Scherf et al.
# Submitted via: audiograbber 1.83.01
#
DISCID=1e096c03
DTITLE=Barranco - Lo mejor de Barranco
DYEAR=2015
DGENRE=Bailable
TTITLE0=Corraleja;El vampiro,La burrita,Tingo al tango,La bonga,Festival en Gua
TTITLE0=raré,La yerbita,La gorra,La adivinanza,La manzana,Tres tigres, La sampa
TTITLE0=,Tres punta, Los Ssabanaless,La palma de coco,Hace un mes,El provincian
TTITLE0=o.
TTITLE1=PetroHits,Azucena,Las cerezas,Voy hacia ti,La cinta verde,Cabeza de hac
TTITLE1=ha
TTITLE2=Sabanero,Rio crecido,Ojos verdes,Corazón de acero
EXTD=Bailable de barranco
EXTT0=
EXTT1=
EXTT2=
PLAYORDER=
